<svg width="2151" height="800" viewBox="0 0 2151 800" fill="none" xmlns="http://www.w3.org/2000/svg">
<path d="M634 753.5H827.5" stroke="black" stroke-width="15"/>
<path d="M866 753.5H1059.5" stroke="black" stroke-width="15"/>
<g clip-path="url(#clip0_409_60)">
<path d="M731.656 308.875V626.062H822.281C822.281 608.036 829.442 590.748 842.189 578.001C854.935 565.255 872.224 558.094 890.25 558.094C908.276 558.094 925.565 565.255 938.311 578.001C951.058 590.748 958.219 608.036 958.219 626.062H1207.44C1207.44 608.036 1214.6 590.748 1227.35 578.001C1240.09 565.255 1257.38 558.094 1275.41 558.094C1293.43 558.094 1310.72 565.255 1323.47 578.001C1336.21 590.748 1343.37 608.036 1343.38 626.062H1411.34V490.125L1343.38 444.812H1230.09V308.875H731.656ZM1003.53 422.156C1003.53 428.165 1001.14 433.928 996.895 438.177C992.647 442.426 986.884 444.812 980.875 444.812H935.562C929.554 444.812 923.791 442.426 919.542 438.177C915.293 433.928 912.906 428.165 912.906 422.156V399.5C912.906 393.491 915.293 387.728 919.542 383.48C923.791 379.231 929.554 376.844 935.562 376.844H980.875C986.884 376.844 992.647 379.231 996.895 383.48C1001.14 387.728 1003.53 393.491 1003.53 399.5V422.156ZM1162.12 422.156C1162.12 428.165 1159.74 433.928 1155.49 438.177C1151.24 442.426 1145.48 444.812 1139.47 444.812H1094.16C1088.15 444.812 1082.38 442.426 1078.14 438.177C1073.89 433.928 1071.5 428.165 1071.5 422.156V399.5C1071.5 393.491 1073.89 387.728 1078.14 383.48C1082.38 379.231 1088.15 376.844 1094.16 376.844H1139.47C1145.48 376.844 1151.24 379.231 1155.49 383.48C1159.74 387.728 1162.12 393.491 1162.12 399.5V422.156Z" fill="#002C54"/>
<path d="M1372.83 104.969H799.625C781.599 104.969 764.31 112.13 751.564 124.876C738.817 137.623 731.656 154.911 731.656 172.938V308.875H1388.69C1394.7 308.875 1400.46 306.488 1404.71 302.239C1408.96 297.99 1411.34 292.228 1411.34 286.219V143.484C1411.34 133.269 1407.29 123.473 1400.06 116.25C1392.84 109.027 1383.04 104.969 1372.83 104.969ZM912.906 218.25C912.906 224.259 910.519 230.022 906.27 234.27C902.022 238.519 896.259 240.906 890.25 240.906H844.938C838.929 240.906 833.166 238.519 828.917 234.27C824.668 230.022 822.281 224.259 822.281 218.25V195.594C822.281 189.585 824.668 183.822 828.917 179.573C833.166 175.324 838.929 172.938 844.938 172.938H890.25C896.259 172.938 902.022 175.324 906.27 179.573C910.519 183.822 912.906 189.585 912.906 195.594V218.25ZM1116.81 218.25C1116.81 224.259 1114.43 230.022 1110.18 234.27C1105.93 238.519 1100.17 240.906 1094.16 240.906H1048.84C1042.83 240.906 1037.07 238.519 1032.82 234.27C1028.57 230.022 1026.19 224.259 1026.19 218.25V195.594C1026.19 189.585 1028.57 183.822 1032.82 179.573C1037.07 175.324 1042.83 172.938 1048.84 172.938H1094.16C1100.17 172.938 1105.93 175.324 1110.18 179.573C1114.43 183.822 1116.81 189.585 1116.81 195.594V218.25ZM1320.72 218.25C1320.72 224.259 1318.33 230.022 1314.08 234.27C1309.83 238.519 1304.07 240.906 1298.06 240.906H1252.75C1246.74 240.906 1240.98 238.519 1236.73 234.27C1232.48 230.022 1230.09 224.259 1230.09 218.25V195.594C1230.09 189.585 1232.48 183.822 1236.73 179.573C1240.98 175.324 1246.74 172.938 1252.75 172.938H1298.06C1304.07 172.938 1309.83 175.324 1314.08 179.573C1318.33 183.822 1320.72 189.585 1320.72 195.594V218.25Z" fill="#002C54"/>
<path d="M1184.78 626.062H980.875" stroke="black" stroke-width="50" stroke-linecap="round" stroke-linejoin="round"/>
<path d="M890.25 694.031C927.788 694.031 958.219 663.601 958.219 626.062C958.219 588.524 927.788 558.094 890.25 558.094C852.712 558.094 822.281 588.524 822.281 626.062C822.281 663.601 852.712 694.031 890.25 694.031Z" stroke="black" stroke-width="50" stroke-linecap="round" stroke-linejoin="round"/>
<path d="M1275.41 694.031C1312.94 694.031 1343.38 663.601 1343.38 626.062C1343.38 588.524 1312.94 558.094 1275.41 558.094C1237.87 558.094 1207.44 588.524 1207.44 626.062C1207.44 663.601 1237.87 694.031 1275.41 694.031Z" stroke="black" stroke-width="50" stroke-linecap="round" stroke-linejoin="round"/>
<path d="M1366.03 626.062H1388.69C1394.7 626.062 1400.46 623.676 1404.71 619.427C1408.96 615.178 1411.34 609.415 1411.34 603.406V490.125L1343.38 444.812V315.672" stroke="black" stroke-width="50" stroke-linecap="round" stroke-linejoin="round"/>
<path d="M754.312 308.875H1388.69C1394.7 308.875 1400.46 306.488 1404.71 302.239C1408.96 297.99 1411.34 292.228 1411.34 286.219V143.484C1411.34 133.269 1407.29 123.473 1400.06 116.25C1392.84 109.027 1383.04 104.969 1372.83 104.969H799.625C781.599 104.969 764.31 112.13 751.564 124.876C738.817 137.623 731.656 154.911 731.656 172.938V603.406C731.656 609.415 734.043 615.178 738.292 619.427C742.541 623.676 748.304 626.062 754.312 626.062H799.625" stroke="black" stroke-width="50" stroke-linecap="round" stroke-linejoin="round"/>
<path d="M1332.05 444.812H1230.09V331.531" stroke="black" stroke-width="50" stroke-linecap="round" stroke-linejoin="round"/>
<path d="M844.938 503.719V331.531" stroke="black" stroke-width="50" stroke-linecap="round" stroke-linejoin="round"/>
<path d="M890.25 172.938H844.938C832.425 172.938 822.281 183.081 822.281 195.594V218.25C822.281 230.763 832.425 240.906 844.938 240.906H890.25C902.763 240.906 912.906 230.763 912.906 218.25V195.594C912.906 183.081 902.763 172.938 890.25 172.938Z" stroke="black" stroke-width="50" stroke-linecap="round" stroke-linejoin="round"/>
<path d="M1094.16 172.938H1048.84C1036.33 172.938 1026.19 183.081 1026.19 195.594V218.25C1026.19 230.763 1036.33 240.906 1048.84 240.906H1094.16C1106.67 240.906 1116.81 230.763 1116.81 218.25V195.594C1116.81 183.081 1106.67 172.938 1094.16 172.938Z" stroke="black" stroke-width="50" stroke-linecap="round" stroke-linejoin="round"/>
<path d="M1298.06 172.938H1252.75C1240.24 172.938 1230.09 183.081 1230.09 195.594V218.25C1230.09 230.763 1240.24 240.906 1252.75 240.906H1298.06C1310.58 240.906 1320.72 230.763 1320.72 218.25V195.594C1320.72 183.081 1310.58 172.938 1298.06 172.938Z" stroke="black" stroke-width="50" stroke-linecap="round" stroke-linejoin="round"/>
<path d="M980.875 376.844H935.562C923.05 376.844 912.906 386.987 912.906 399.5V422.156C912.906 434.669 923.05 444.812 935.562 444.812H980.875C993.388 444.812 1003.53 434.669 1003.53 422.156V399.5C1003.53 386.987 993.388 376.844 980.875 376.844Z" stroke="black" stroke-width="50" stroke-linecap="round" stroke-linejoin="round"/>
<path d="M1139.47 376.844H1094.16C1081.64 376.844 1071.5 386.987 1071.5 399.5V422.156C1071.5 434.669 1081.64 444.812 1094.16 444.812H1139.47C1151.98 444.812 1162.12 434.669 1162.12 422.156V399.5C1162.12 386.987 1151.98 376.844 1139.47 376.844Z" stroke="black" stroke-width="50" stroke-linecap="round" stroke-linejoin="round"/>
</g>
<path d="M1579 753.5H1772.5" stroke="black" stroke-width="15"/>
<path d="M1811 753.5H2004.5" stroke="black" stroke-width="15"/>
<path d="M1109 753.5H1302.5" stroke="black" stroke-width="15"/>
<path d="M1341 753.5H1534.5" stroke="black" stroke-width="15"/>
<path d="M164 753.5H357.5" stroke="black" stroke-width="15"/>
<path d="M396 753.5H589.5" stroke="black" stroke-width="15"/>
<path d="M2002.83 704.286C2067.25 638.028 2131.67 578.699 2131.67 505.514C2131.67 432.329 2073.99 373 2002.83 373C1931.68 373 1874 432.329 1874 505.514C1874 578.699 1938.42 638.028 2002.83 704.286Z" stroke="#C5001A" stroke-width="36.8095" stroke-linecap="round" stroke-linejoin="round"/>
<path d="M2002.83 538.643C2023.16 538.643 2039.64 522.163 2039.64 501.833C2039.64 481.504 2023.16 465.024 2002.83 465.024C1982.5 465.024 1966.02 481.504 1966.02 501.833C1966.02 522.163 1982.5 538.643 2002.83 538.643Z" stroke="#C5001A" stroke-width="36.8095" stroke-linecap="round" stroke-linejoin="round"/>
<path d="M147.833 731.286C212.25 665.028 276.667 605.699 276.667 532.514C276.667 459.329 218.986 400 147.833 400C76.6807 400 19 459.329 19 532.514C19 605.699 83.4166 665.028 147.833 731.286Z" stroke="#C5001A" stroke-width="36.8095" stroke-linecap="round" stroke-linejoin="round"/>
<path d="M147.833 565.643C168.163 565.643 184.643 549.163 184.643 528.833C184.643 508.504 168.163 492.024 147.833 492.024C127.504 492.024 111.024 508.504 111.024 528.833C111.024 549.163 127.504 565.643 147.833 565.643Z" stroke="#C5001A" stroke-width="36.8095" stroke-linecap="round" stroke-linejoin="round"/>
<defs>
<clipPath id="clip0_409_60">
<rect width="725" height="725" fill="white" transform="translate(709 37)"/>
</clipPath>
</defs>
</svg>
